<svg width="100" height="38" viewBox="0 0 100 38" fill="none" xmlns="http://www.w3.org/2000/svg">
<rect width="100" height="38" rx="19" fill="#00CEFF"/>
<path d="M37.8604 18.398C38.3457 18.5973 38.7054 18.8617 38.9394 19.191C39.1821 19.5203 39.3034 19.9277 39.3034 20.413C39.3034 20.569 39.2904 20.7467 39.2644 20.946L39.2384 21.115C39.1344 21.7997 38.8657 22.311 38.4324 22.649C38.0077 22.987 37.4097 23.156 36.6384 23.156C36.2657 23.156 35.8584 23.104 35.4164 23C34.9744 22.8873 34.6017 22.7573 34.2984 22.61L34.4284 21.505C35.0264 21.8083 35.5767 22.0207 36.0794 22.142C36.2527 22.1593 36.4391 22.168 36.6384 22.168C37.0891 22.168 37.4314 22.077 37.6654 21.895C37.8994 21.7043 38.0511 21.414 38.1204 21.024L38.1464 20.881C38.1724 20.7337 38.1854 20.6037 38.1854 20.491C38.1854 20.2137 38.1117 19.9883 37.9644 19.815C37.8257 19.633 37.5961 19.477 37.2754 19.347L36.1184 18.879C35.6591 18.697 35.3081 18.4283 35.0654 18.073C34.8227 17.7177 34.7014 17.3017 34.7014 16.825C34.7014 16.6083 34.7274 16.383 34.7794 16.149L34.8054 16.032C35.0567 14.8967 35.9277 14.329 37.4184 14.329C37.6871 14.329 38.0034 14.3593 38.3674 14.42C38.7401 14.472 39.0781 14.537 39.3814 14.615L39.2384 15.668C38.7531 15.5293 38.2807 15.4167 37.8214 15.33C37.6914 15.3213 37.5397 15.317 37.3664 15.317C36.4997 15.317 36.0144 15.642 35.9104 16.292L35.8844 16.448C35.8671 16.5867 35.8584 16.6907 35.8584 16.76C35.8584 17.0373 35.9321 17.2757 36.0794 17.475C36.2267 17.6657 36.4607 17.826 36.7814 17.956L37.8604 18.398ZM40.4917 15.486L40.6217 14.485H46.6667L46.5367 15.486H44.0667L43.1567 23H42.0517L42.9617 15.486H40.4917ZM51.9182 23H50.7352C50.6832 22.5927 50.5878 21.934 50.4492 21.024H47.3422C47.0475 21.778 46.7702 22.4367 46.5102 23H45.3402L48.9802 14.485H50.3452L51.9182 23ZM49.5262 15.512C48.9022 17.1673 48.3128 18.6753 47.7582 20.036H50.2932C50.0678 18.5973 49.8122 17.0893 49.5262 15.512ZM56.3151 14.329C57.1818 14.329 57.8578 14.524 58.3431 14.914C58.8284 15.304 59.0711 15.811 59.0711 16.435C59.0711 16.5217 59.0624 16.643 59.0451 16.799L59.0061 17.059C58.9368 17.5443 58.7331 17.9733 58.3951 18.346C58.0658 18.7187 57.6454 18.9873 57.1341 19.152L58.9151 23H57.6541C57.2468 21.9947 56.9304 21.2407 56.7051 20.738C56.4884 20.2353 56.2544 19.7543 56.0031 19.295C55.5611 19.295 55.1018 19.2603 54.6251 19.191L54.1701 23H53.0651L54.1181 14.394C54.9241 14.3507 55.6564 14.329 56.3151 14.329ZM55.1061 15.278L54.7291 18.346C55.1884 18.398 55.5698 18.424 55.8731 18.424C57.0691 18.424 57.7494 17.9343 57.9141 16.955L57.9271 16.877C57.9444 16.721 57.9531 16.6083 57.9531 16.539C57.9531 16.123 57.8058 15.8067 57.5111 15.59C57.2251 15.3647 56.7961 15.252 56.2241 15.252L55.1061 15.278ZM60.0805 15.486L60.2105 14.485H66.2555L66.1255 15.486H63.6555L62.7455 23H61.6405L62.5505 15.486H60.0805Z" fill="#B20911"/>
</svg>
