<svg width="100" height="38" viewBox="0 0 100 38" fill="none" xmlns="http://www.w3.org/2000/svg">
<rect width="100" height="38" rx="8" fill="#E2C265" fill-opacity="0.92"/>
<path d="M31.3959 23.156C30.5639 23.156 29.9269 22.9567 29.4849 22.558C29.0516 22.1507 28.8349 21.5743 28.8349 20.829C28.8349 20.6557 28.8479 20.478 28.8739 20.296L29.2769 16.955C29.3809 16.0623 29.6669 15.4037 30.1349 14.979C30.6029 14.5457 31.2963 14.329 32.2149 14.329C32.5616 14.329 32.9559 14.368 33.3979 14.446C33.8486 14.5153 34.2386 14.602 34.5679 14.706L34.4379 15.72C34.0826 15.59 33.6969 15.486 33.2809 15.408C32.8736 15.3213 32.5009 15.278 32.1629 15.278C31.6169 15.278 31.2009 15.4037 30.9149 15.655C30.6289 15.9063 30.4513 16.3137 30.3819 16.877L29.9399 20.491C29.9226 20.647 29.9139 20.7597 29.9139 20.829C29.9139 21.2797 30.0439 21.6177 30.3039 21.843C30.5639 22.0683 30.9409 22.181 31.4349 22.181C31.9809 22.181 32.4923 22.0857 32.9689 21.895L33.3069 19.126H31.6689L31.8119 18.086H34.5419L34.0089 22.415C33.6103 22.623 33.1726 22.8007 32.6959 22.948C32.2279 23.0867 31.7946 23.156 31.3959 23.156ZM39.0749 14.329C39.9415 14.329 40.6175 14.524 41.1029 14.914C41.5882 15.304 41.8309 15.811 41.8309 16.435C41.8309 16.5217 41.8222 16.643 41.8049 16.799L41.7659 17.059C41.6965 17.5443 41.4929 17.9733 41.1549 18.346C40.8255 18.7187 40.4052 18.9873 39.8939 19.152L41.6749 23H40.4139C40.0065 21.9947 39.6902 21.2407 39.4649 20.738C39.2482 20.2353 39.0142 19.7543 38.7629 19.295C38.3209 19.295 37.8615 19.2603 37.3849 19.191L36.9299 23H35.8249L36.8779 14.394C37.6839 14.3507 38.4162 14.329 39.0749 14.329ZM37.8659 15.278L37.4889 18.346C37.9482 18.398 38.3295 18.424 38.6329 18.424C39.8289 18.424 40.5092 17.9343 40.6739 16.955L40.6869 16.877C40.7042 16.721 40.7129 16.6083 40.7129 16.539C40.7129 16.123 40.5655 15.8067 40.2709 15.59C39.9849 15.3647 39.5559 15.252 38.9839 15.252L37.8659 15.278ZM48.4904 23H47.3074C47.2554 22.5927 47.1601 21.934 47.0214 21.024H43.9144C43.6198 21.778 43.3424 22.4367 43.0824 23H41.9124L45.5524 14.485H46.9174L48.4904 23ZM46.0984 15.512C45.4744 17.1673 44.8851 18.6753 44.3304 20.036H46.8654C46.6401 18.5973 46.3844 17.0893 46.0984 15.512ZM55.1624 14.485L55.0324 15.486H51.6524L51.3274 18.177H53.8754L53.7454 19.165H51.1974L50.7424 23H49.6374L50.6774 14.485H55.1624ZM55.6676 23L56.7076 14.485H57.8126L56.7726 23H55.6676ZM62.1592 14.329C62.4452 14.329 62.7615 14.3593 63.1082 14.42C63.4635 14.472 63.7929 14.5457 64.0962 14.641L63.9532 15.681C63.6499 15.5597 63.3335 15.4643 63.0042 15.395C62.6835 15.3257 62.3932 15.291 62.1332 15.291C61.1712 15.291 60.6295 15.8283 60.5082 16.903L60.0792 20.478C60.0619 20.686 60.0532 20.8333 60.0532 20.92C60.0532 21.3533 60.1572 21.6653 60.3652 21.856C60.5732 22.0467 60.9025 22.142 61.3532 22.142C61.9165 22.142 62.5665 21.9773 63.3032 21.648L63.1992 22.688C62.9219 22.8267 62.5882 22.9393 62.1982 23.026C61.8169 23.1127 61.4789 23.156 61.1842 23.156C60.4389 23.156 59.8799 22.9783 59.5072 22.623C59.1345 22.259 58.9482 21.7043 58.9482 20.959C58.9482 20.7597 58.9612 20.543 58.9872 20.309L59.3902 16.981C59.5029 16.0797 59.7889 15.4123 60.2482 14.979C60.7075 14.5457 61.3445 14.329 62.1592 14.329ZM68.6538 14.329C69.4772 14.329 70.1142 14.537 70.5648 14.953C71.0242 15.369 71.2538 15.954 71.2538 16.708C71.2538 16.916 71.2452 17.0763 71.2278 17.189L70.8248 20.426C70.5995 22.246 69.5682 23.156 67.7308 23.156C66.8815 23.156 66.2315 22.9523 65.7808 22.545C65.3388 22.1377 65.1178 21.557 65.1178 20.803C65.1178 20.647 65.1308 20.478 65.1568 20.296L65.5598 17.059C65.6812 16.123 65.9888 15.434 66.4828 14.992C66.9768 14.55 67.7005 14.329 68.6538 14.329ZM68.5758 15.304C67.4318 15.304 66.7948 15.8543 66.6648 16.955L66.2488 20.439C66.2315 20.595 66.2228 20.7077 66.2228 20.777C66.2228 21.2363 66.3572 21.5873 66.6258 21.83C66.9032 22.064 67.2932 22.181 67.7958 22.181C68.9312 22.181 69.5682 21.6263 69.7068 20.517L70.1358 17.046C70.1532 16.89 70.1618 16.773 70.1618 16.695C70.1618 16.2357 70.0275 15.889 69.7588 15.655C69.4902 15.421 69.0958 15.304 68.5758 15.304Z" fill="black"/>
</svg>
