<svg width="50" height="50" viewBox="0 0 50 50" fill="none" xmlns="http://www.w3.org/2000/svg">
<g clip-path="url(#clip0_39_33)">
<path d="M37.5001 4.16669C38.0526 4.16669 38.5825 4.38618 38.9732 4.77688C39.3639 5.16758 39.5834 5.69749 39.5834 6.25002V22.9167H35.4167V8.33335H14.5834V41.6667H22.9167V45.8334H12.5001C11.9475 45.8334 11.4176 45.6139 11.0269 45.2232C10.6362 44.8325 10.4167 44.3026 10.4167 43.75V6.25002C10.4167 5.69749 10.6362 5.16758 11.0269 4.77688C11.4176 4.38618 11.9475 4.16669 12.5001 4.16669H37.5001ZM31.2501 25C32.7195 24.9998 34.1629 25.3882 35.4339 26.1257C36.7048 26.8632 37.7582 27.9237 38.4871 29.1996C39.216 30.4756 39.5946 31.9215 39.5844 33.3909C39.5743 34.8604 39.1757 36.301 38.4292 37.5667L43.0334 42.1709L40.0897 45.1188L35.4813 40.5146C34.3774 41.1645 33.1384 41.5512 31.8608 41.6445C30.5831 41.7379 29.3011 41.5354 28.1144 41.0528C26.9277 40.5702 25.8682 39.8206 25.0183 38.862C24.1684 37.9035 23.5509 36.7619 23.2139 35.526C22.8768 34.2901 22.8292 32.9931 23.0748 31.7358C23.3204 30.4785 23.8526 29.2947 24.6299 28.2765C25.4073 27.2582 26.409 26.4329 27.5572 25.8647C28.7053 25.2964 29.969 25.0006 31.2501 25V25ZM31.2501 29.1667C30.145 29.1667 29.0852 29.6057 28.3038 30.3871C27.5224 31.1685 27.0834 32.2283 27.0834 33.3334C27.0834 34.4384 27.5224 35.4982 28.3038 36.2796C29.0852 37.061 30.145 37.5 31.2501 37.5C32.3552 37.5 33.415 37.061 34.1964 36.2796C34.9778 35.4982 35.4167 34.4384 35.4167 33.3334C35.4167 32.2283 34.9778 31.1685 34.1964 30.3871C33.415 29.6057 32.3552 29.1667 31.2501 29.1667Z" fill="#D2B45F"/>
</g>
<defs>
<clipPath id="clip0_39_33">
<rect width="50" height="50" fill="white"/>
</clipPath>
</defs>
</svg>
