<svg width="100" height="38" viewBox="0 0 100 38" fill="none" xmlns="http://www.w3.org/2000/svg">
<rect width="100" height="38" rx="8" fill="#E2C265" fill-opacity="0.92"/>
<path d="M28.4912 14.329C29.4012 14.329 30.1032 14.524 30.5972 14.914C31.0999 15.2953 31.3512 15.8283 31.3512 16.513C31.3512 16.6517 31.3382 16.799 31.3122 16.955L31.2862 17.137C31.1735 17.9083 30.8529 18.502 30.3242 18.918C29.8042 19.3253 29.0935 19.529 28.1922 19.529C27.8975 19.529 27.4555 19.4727 26.8662 19.36L26.4372 23H25.3322L26.3852 14.394C27.1479 14.3507 27.8499 14.329 28.4912 14.329ZM28.4522 15.252C28.0969 15.252 27.7372 15.2607 27.3732 15.278L26.9702 18.489C27.4382 18.5757 27.8369 18.619 28.1662 18.619C28.7642 18.619 29.2235 18.4933 29.5442 18.242C29.8735 17.9907 30.0859 17.6007 30.1812 17.072L30.2072 16.929C30.2245 16.851 30.2332 16.734 30.2332 16.578C30.2332 16.162 30.0815 15.837 29.7782 15.603C29.4749 15.369 29.0329 15.252 28.4522 15.252ZM31.9591 23L32.9991 14.485H34.1041L33.1681 22.025H36.5481L36.4441 23H31.9591ZM43.5964 23H42.4134C42.3614 22.5927 42.266 21.934 42.1274 21.024H39.0204C38.7257 21.778 38.4484 22.4367 38.1884 23H37.0184L40.6584 14.485H42.0234L43.5964 23ZM41.2044 15.512C40.5804 17.1673 39.991 18.6753 39.4364 20.036H41.9714C41.746 18.5973 41.4904 17.0893 41.2044 15.512ZM46.7063 15.772L45.8353 23H44.7433L45.7833 14.485H47.4083C48.171 16.9463 48.8427 19.3513 49.4233 21.7L50.3073 14.485H51.3993L50.3593 23H48.7343L46.7063 15.772ZM52.3097 23L53.3497 14.485H54.4547L53.4147 23H52.3097ZM55.3693 23L56.4093 14.485H57.5143L56.5783 22.025H59.9583L59.8543 23H55.3693ZM65.7068 23L66.1748 19.1H62.7948L62.3268 23H61.2218L62.2618 14.485H63.3668L62.9118 18.112H66.2918L66.7468 14.485H67.8518L66.8118 23H65.7068ZM74.5349 23H73.3519C73.2999 22.5927 73.2045 21.934 73.0659 21.024H69.9589C69.6642 21.778 69.3869 22.4367 69.1269 23H67.9569L71.5969 14.485H72.9619L74.5349 23ZM72.1429 15.512C71.5189 17.1673 70.9295 18.6753 70.3749 20.036H72.9099C72.6845 18.5973 72.4289 17.0893 72.1429 15.512Z" fill="black"/>
</svg>
