<svg width="45" height="45" viewBox="0 0 45 45" fill="none" xmlns="http://www.w3.org/2000/svg">
<path d="M2.5 0H42.5C43.163 0 43.7989 0.263392 44.2678 0.732233C44.7366 1.20107 45 1.83696 45 2.5V42.5C45 43.163 44.7366 43.7989 44.2678 44.2678C43.7989 44.7366 43.163 45 42.5 45H2.5C1.83696 45 1.20107 44.7366 0.732233 44.2678C0.263392 43.7989 0 43.163 0 42.5V2.5C0 1.83696 0.263392 1.20107 0.732233 0.732233C1.20107 0.263392 1.83696 0 2.5 0V0ZM5 5V40H40V5H5ZM11.25 15C10.2554 15 9.30161 14.6049 8.59835 13.9017C7.89509 13.1984 7.5 12.2446 7.5 11.25C7.5 10.2554 7.89509 9.30161 8.59835 8.59835C9.30161 7.89509 10.2554 7.5 11.25 7.5C12.2446 7.5 13.1984 7.89509 13.9017 8.59835C14.6049 9.30161 15 10.2554 15 11.25C15 12.2446 14.6049 13.1984 13.9017 13.9017C13.1984 14.6049 12.2446 15 11.25 15V15ZM8.75 17.5H13.75V36.25H8.75V17.5ZM22.5 18.575C23.96 17.1625 25.665 16.25 27.5 16.25C32.6775 16.25 36.25 20.4475 36.25 25.625V36.25H31.25V25.625C31.25 24.4647 30.7891 23.3519 29.9686 22.5314C29.1481 21.7109 28.0353 21.25 26.875 21.25C25.7147 21.25 24.6019 21.7109 23.7814 22.5314C22.9609 23.3519 22.5 24.4647 22.5 25.625V36.25H17.5V17.5H22.5V18.575Z" fill="#D2B45F"/>
</svg>
